<svg width="134" height="16" viewBox="0 0 134 16" fill="none" xmlns="http://www.w3.org/2000/svg">
<g clip-path="url(#clip0_1596_890)">
<path d="M99.668 8.16699C99.6681 10.7993 101.298 11.8242 103.97 11.8242C106.641 11.8242 108.271 10.7993 108.271 8.16699V1H111.863V8.60645C111.863 12.9528 108.815 15 103.782 15C98.75 14.9999 95.6602 12.9527 95.6602 8.60645V1H99.668V8.16699ZM35.2725 3.96875H26.293V6.66504H33.1846V9.00684H26.293V11.7842H35.4814V14.7529H22.2842V1H35.2725V3.96875ZM10.3799 10.5693H10.4004L14.0342 1H20.4229V14.751H16.415V3.73633H16.373L12.0303 14.748H8.29199L3.92676 3.73633H3.88477V14.748H0V1H6.66211L10.3799 10.5693ZM49.8037 9.27539H49.8232V1H53.708V14.751H49.7393L40.7803 4.6377H40.7598V14.751H36.875V1H42.4736L49.8037 9.27539ZM62.5625 1C69.0152 1.00013 71.1864 3.98812 71.1865 7.875C71.1865 12.2831 68.9734 14.7509 63.168 14.751H55.5674V1H62.5625ZM81.2295 1C86.326 1 87.9121 2.61056 87.9121 5.0752C87.912 6.45306 87.3258 7.79147 85.4277 8.35449V8.39648C87.5992 8.89784 87.8281 10.424 87.8281 11.8662V14.751H83.8203V11.8662C83.8203 10.4462 83.2756 9.79688 81.5645 9.79688H76.5938V14.748H72.585V1H81.2295ZM93.8428 14.751H89.835V1H93.8428V14.751ZM123.957 10.5693H123.977L127.611 1H134V14.751H129.992V3.73633H129.95L125.606 14.748H121.869L117.504 3.73633H117.462V14.748H113.577V1H120.239L123.957 10.5693ZM59.5752 11.7842H63.042L63.0449 11.7822C66.0091 11.7821 67.1787 10.4038 67.1787 7.875C67.1786 5.70194 66.0089 3.9688 62.7715 3.96875H59.5752V11.7842ZM76.5957 7.45801H81.4189C83.4034 7.45801 84.1133 6.72697 84.1133 5.66016C84.1133 4.67727 83.3813 3.96875 81.0645 3.96875H76.5957V7.45801Z" fill="black"/>
</g>
<defs>
<clipPath id="clip0_1596_890">
<rect width="134" height="14" fill="white" transform="translate(0 1)"/>
</clipPath>
</defs>
</svg>
