<svg width="74" height="16" viewBox="0 0 74 16" fill="none" xmlns="http://www.w3.org/2000/svg">
<g clip-path="url(#clip0_1596_882)">
<path d="M51.6167 2.74327H47.0498V4.1141H51.6167V16H52.988V4.1141V2.74327V0H51.6167V2.74327Z" fill="black"/>
<path d="M55.2715 0V16H63.4932V0H55.2715ZM56.6428 14.6292V1.37083H62.125V14.6276H56.6428V14.6292Z" fill="black"/>
<path d="M67.1481 14.6292V6.40097H71.7166V0H65.7783V1.37083H70.3468V5.02853H65.7783V16H74V14.6292H67.1481Z" fill="black"/>
<path d="M9.13538 0H0V16H13.7039V6.85737H9.13538V0ZM2.28344 2.28525H6.85194V6.85737H2.28344V2.28525ZM11.4204 9.14263V13.7147H2.28344V9.14263H11.4188H11.4204Z" fill="black"/>
<path d="M15.9873 16H29.2335V6.85742H15.9873V16ZM18.2724 9.14268H26.9517V13.7148H18.2724V9.14268Z" fill="black"/>
<path d="M42.0253 6.85742L39.9691 10.2861H36.3143L34.2597 6.85742H31.5186L34.2597 11.4295L31.5186 16H34.2597L36.3143 12.5714H39.9691L42.0253 16H44.7664L42.0253 11.4295L44.7664 6.85742H42.0253Z" fill="black"/>
</g>
<defs>
<clipPath id="clip0_1596_882">
<rect width="74" height="16" fill="white"/>
</clipPath>
</defs>
</svg>
