<svg width="469" height="50" viewBox="0 0 469 50" fill="none" xmlns="http://www.w3.org/2000/svg">
<g clip-path="url(#clip0_1596_977)">
<path d="M349.096 25.083C349.096 34.297 354.788 37.8848 364.118 37.8848C373.448 37.8848 379.141 34.297 379.141 25.083V0H391.687V26.6221C391.686 41.8345 381.041 48.9999 363.465 49C345.889 49 335.097 41.8346 335.097 26.6221V0H349.096V25.083ZM124.189 10.3896H92.8281V19.8281H116.897V28.0225H92.8281V37.7461H124.92V48.1357H78.8291V0H124.189V10.3896ZM37.2529 33.4932H37.3223L50.0146 0H72.3281V48.127H58.3291V9.57715H58.1836L43.0146 48.1182H29.9609L14.7158 9.57715H14.5693V48.1182H1V0H24.2686L37.2529 33.4932ZM174.94 28.9648H175.009V0H188.578V48.127H174.717L143.425 12.7314H143.356V48.127H129.787V0H149.341L174.94 28.9648ZM219.5 0C242.038 0 249.623 10.4586 249.623 24.0635C249.623 39.4921 241.892 48.127 221.615 48.127H195.07V0H219.5ZM284.698 0C302.498 7.8049e-05 308.035 5.6356 308.035 14.2617C308.035 19.0847 305.989 23.7695 299.359 25.7402V25.8877C306.943 27.6424 307.743 32.9836 307.743 38.0312V48.127H293.744V38.0312C293.744 33.0613 291.843 30.7881 285.867 30.7881H268.506V48.1182H254.507V0H284.698ZM328.75 48.127H314.751V0H328.75V48.127ZM433.925 33.4932H433.993L446.686 0H469V48.127H455.001V9.57715H454.854L439.687 48.1182H426.633L411.387 9.57715H411.24V48.1182H397.672V0H420.94L433.925 33.4932ZM209.069 37.7461H221.177L221.186 37.7373C231.539 37.7373 235.623 32.9144 235.623 24.0635C235.623 16.4573 231.539 10.3897 220.231 10.3896H209.069V37.7461ZM268.515 22.6025H285.36C292.291 22.6024 294.767 20.0443 294.768 16.3105C294.768 12.8705 292.213 10.3897 284.122 10.3896H268.515V22.6025Z" fill="black"/>
</g>
<defs>
<clipPath id="clip0_1596_977">
<rect width="468" height="49" fill="white" transform="translate(1)"/>
</clipPath>
</defs>
</svg>
