<?xml version="1.0" encoding="UTF-8"?>
<svg id="Layer_2" data-name="Layer 2" xmlns="http://www.w3.org/2000/svg" viewBox="0 0 544.25 56.69">
  <defs>
    <style>
      .cls-1 {
        fill: #231815;
        stroke-width: 0px;
      }
    </style>
  </defs>
  <g id="Layer_1-2" data-name="Layer 1">
    <g>
      <path class="cls-1" d="M0,0h27.06l15.1,38.75h.08L57,0h25.95v55.68h-16.28V11.08h-.17l-17.64,44.59h-15.18L15.95,11.08h-.17v44.59H0V0Z"/>
      <path class="cls-1" d="M90.5,0h52.76v12.02h-36.47v10.92h27.99v9.48h-27.99v11.25h37.32v12.02h-53.6V0Z"/>
      <path class="cls-1" d="M149.78,0h22.73l29.77,33.51h.08V0h15.78v55.68h-16.12l-36.39-40.95h-.08v40.95h-15.78V0Z"/>
      <path class="cls-1" d="M225.69,0h28.41c26.21,0,35.03,12.1,35.03,27.84,0,17.85-8.99,27.84-32.57,27.84h-30.87V0ZM256.06,43.66c12.04,0,16.79-5.58,16.79-15.82,0-8.8-4.75-15.82-17.9-15.82h-12.98v31.65h14.08Z"/>
      <path class="cls-1" d="M294.81,0h35.11c20.7,0,27.14,6.52,27.14,16.5,0,5.58-2.38,11-10.09,13.28v.17c8.82,2.03,9.75,8.21,9.75,14.05v11.68h-16.28v-11.68c0-5.75-2.21-8.38-9.16-8.38h-20.19v20.05h-16.28V0ZM330.69,26.15c8.06,0,10.94-2.96,10.94-7.28,0-3.98-2.97-6.85-12.38-6.85h-18.15v14.13h19.59Z"/>
      <path class="cls-1" d="M364.87,0h16.28v55.68h-16.28V0Z"/>
      <path class="cls-1" d="M388.53,30.8V0h16.28v29.02c0,10.66,6.62,14.81,17.47,14.81s17.47-4.15,17.47-14.81V0h14.59v30.8c0,17.6-12.38,25.89-32.82,25.89s-32.99-8.29-32.99-25.89Z"/>
      <path class="cls-1" d="M461.3,0h27.06l15.1,38.75h.08l14.76-38.75h25.95v55.68h-16.28V11.08h-.17l-17.64,44.59h-15.18l-17.73-44.59h-.17v44.59h-15.78V0Z"/>
    </g>
  </g>
</svg>